<?xml version="1.0" encoding="UTF-8"?>
<svg id="Layer_1" data-name="Layer 1" xmlns="http://www.w3.org/2000/svg" viewBox="0 0 157.01 57.51">
  <defs>
    <style>
      .cls-1 {
        fill-rule: evenodd;
      }

      .cls-1, .cls-2, .cls-3 {
        stroke-width: 0px;
      }

      .cls-1, .cls-3 {
        fill: #650015;
      }

      .cls-2 {
        fill: #f97115;
      }
    </style>
  </defs>
  <path class="cls-1" d="M60.64,14.67v-3.19l10.27-.02c2.49-.34,1.81-3.19,0-3.19h-10.27s0-3.17,0-3.17h10.27c6.28,0,6.34,9.57,0,9.57h-10.27ZM96.37,0v3.19l-8.31.02c-6.06-.05-6.91,1.27-9.55,3.64-3.05-2.72-3.31-3.42-9.55-3.66h-8.31V0h35.72ZM96.37,11.48v3.19h-10.36c-6.28,0-6.34-9.57,0-9.57h10.36v3.19h-10.36c-2.11,0-2.11,3.2,0,3.2h10.36ZM60.64,19.42v-3.19h8.31c6.29.46,6.6-1,9.55-3.66,3.05,2.72,3.3,3.77,9.55,3.66h8.31v3.19h-35.72Z"/>
  <g>
    <g>
      <path class="cls-3" d="M0,44.6v-20.24h3.75v8.25h7.25v-8.25h3.75v20.24h-3.75v-8.49H3.75v8.49H0Z"/>
      <path class="cls-3" d="M33.81,29.4v15.2h-3.35v-1.87c-.22.28-.62.62-1.21,1.03-1.31.91-2.67,1.36-4.08,1.36-2.14,0-3.9-.78-5.3-2.33-1.4-1.55-2.1-3.5-2.1-5.86s.73-4.18,2.18-5.73c1.45-1.54,3.25-2.31,5.41-2.31.97,0,1.92.23,2.85.68.94.45,1.69,1.04,2.25,1.77v-1.93h3.35ZM25.92,32.24c-1.27,0-2.34.46-3.2,1.39-.87.93-1.3,2.07-1.3,3.44s.44,2.45,1.31,3.35c.88.91,1.94,1.36,3.19,1.36s2.33-.45,3.17-1.36c.85-.91,1.27-2.04,1.27-3.41s-.42-2.53-1.25-3.43c-.84-.9-1.9-1.34-3.19-1.34Z"/>
      <path class="cls-3" d="M37.13,44.6v-15.2h3.38v1.33c1.25-1.23,2.63-1.84,4.14-1.84,1.95,0,3.51.76,4.68,2.27.87,1.13,1.3,2.87,1.3,5.23v8.22h-3.66v-7.49c0-1.85-.3-3.14-.91-3.87-.56-.66-1.28-1-2.14-1-1.15,0-1.99.47-2.54,1.42-.4.69-.6,1.92-.6,3.72v7.22h-3.66Z"/>
      <path class="cls-3" d="M69.12,24.36v20.24h-3.32v-1.84c-1.45,1.57-3.19,2.36-5.23,2.36s-3.76-.8-5.24-2.4c-1.48-1.6-2.22-3.5-2.22-5.7s.75-4.12,2.25-5.73c1.5-1.6,3.3-2.4,5.39-2.4,1.89,0,3.46.62,4.71,1.87v-6.41h3.66ZM61.24,32.24c-1.19,0-2.23.47-3.13,1.4-.9.94-1.34,2.04-1.34,3.31s.44,2.46,1.31,3.4c.88.94,1.94,1.4,3.19,1.4s2.29-.47,3.17-1.4c.89-.94,1.33-2.05,1.33-3.34s-.45-2.41-1.34-3.35c-.9-.95-1.96-1.42-3.19-1.42Z"/>
    </g>
    <path class="cls-2" d="M71.93,44.6v-3.44l7.22-6.74c1.49-1.39,2.24-2.73,2.24-4.02,0-.89-.28-1.61-.83-2.18-.55-.56-1.26-.85-2.13-.85-.68,0-1.3.22-1.86.65-.55.43-.91.98-1.07,1.65-.08.32-.12.87-.12,1.63h-3.66l-.03-.66c-.08-1.85.54-3.43,1.86-4.74,1.32-1.31,2.92-1.96,4.79-1.96s3.45.65,4.74,1.93c1.29,1.29,1.93,2.86,1.93,4.71,0,1.75-.59,3.31-1.78,4.68-.81.93-1.51,1.66-2.12,2.21l-4.11,3.69h8.01v3.44h-13.08Z"/>
    <g>
      <path class="cls-3" d="M87.89,44.6v-20.24h3.75v8.25h7.25v-8.25h3.75v20.24h-3.75v-8.49h-7.25v8.49h-3.75Z"/>
      <path class="cls-3" d="M121.69,29.4v15.2h-3.35v-1.87c-.22.28-.62.62-1.21,1.03-1.31.91-2.67,1.36-4.08,1.36-2.14,0-3.9-.78-5.3-2.33-1.4-1.55-2.1-3.5-2.1-5.86s.73-4.18,2.18-5.73,3.25-2.31,5.41-2.31c.97,0,1.92.23,2.85.68.94.45,1.69,1.04,2.25,1.77v-1.93h3.35ZM113.81,32.24c-1.27,0-2.34.46-3.2,1.39-.87.93-1.3,2.07-1.3,3.44s.44,2.45,1.31,3.35c.88.91,1.94,1.36,3.19,1.36s2.33-.45,3.17-1.36c.85-.91,1.27-2.04,1.27-3.41s-.42-2.53-1.25-3.43c-.84-.9-1.9-1.34-3.19-1.34Z"/>
      <path class="cls-3" d="M125.02,44.6v-15.2h3.38v1.33c1.25-1.23,2.63-1.84,4.14-1.84,1.95,0,3.51.76,4.68,2.27.87,1.13,1.3,2.87,1.3,5.23v8.22h-3.66v-7.49c0-1.85-.3-3.14-.91-3.87-.56-.66-1.28-1-2.14-1-1.15,0-1.99.47-2.54,1.42-.4.69-.6,1.92-.6,3.72v7.22h-3.66Z"/>
      <path class="cls-3" d="M157.01,24.36v20.24h-3.32v-1.84c-1.45,1.57-3.19,2.36-5.23,2.36s-3.76-.8-5.24-2.4c-1.48-1.6-2.22-3.5-2.22-5.7s.75-4.12,2.25-5.73c1.5-1.6,3.3-2.4,5.39-2.4,1.89,0,3.46.62,4.71,1.87v-6.41h3.66ZM149.12,32.24c-1.19,0-2.23.47-3.13,1.4-.9.94-1.34,2.04-1.34,3.31s.44,2.46,1.31,3.4c.88.94,1.94,1.4,3.19,1.4s2.29-.47,3.17-1.4c.89-.94,1.33-2.05,1.33-3.34s-.45-2.41-1.34-3.35c-.9-.95-1.96-1.42-3.19-1.42Z"/>
    </g>
  </g>
  <g>
    <path class="cls-3" d="M41.24,50.02c1.74,0,3.06.98,3.48,2.57h-1.96c-.3-.63-.86-.94-1.53-.94-1.1,0-1.85.81-1.85,2.11s.75,2.11,1.85,2.11c.68,0,1.23-.31,1.53-.94h1.96c-.42,1.59-1.73,2.56-3.48,2.56-2.16,0-3.69-1.53-3.69-3.73s1.52-3.74,3.69-3.74Z"/>
    <path class="cls-3" d="M53.62,57.51c-2.08,0-3.77-1.56-3.77-3.76s1.69-3.75,3.77-3.75,3.75,1.55,3.75,3.75-1.67,3.76-3.75,3.76ZM53.62,55.88c1.17,0,1.93-.85,1.93-2.13s-.76-2.13-1.93-2.13-1.94.82-1.94,2.13.75,2.13,1.94,2.13Z"/>
    <path class="cls-3" d="M62.68,50.11h1.79v4.39c0,.87.43,1.37,1.27,1.37s1.29-.5,1.29-1.37v-4.39h1.79v4.37c0,2.03-1.42,3.03-3.11,3.03s-3.03-1-3.03-3.03v-4.37Z"/>
    <path class="cls-3" d="M77.41,50.11c1.8,0,2.69,1.03,2.69,2.31,0,.92-.5,1.79-1.63,2.12l1.69,2.9h-2.01l-1.52-2.77h-.43v2.77h-1.79v-7.33h3ZM77.3,51.59h-1.11v1.82h1.11c.67,0,.98-.34.98-.92,0-.54-.31-.9-.98-.9Z"/>
    <path class="cls-3" d="M85.56,50.11h1.79v7.33h-1.79v-7.33Z"/>
    <path class="cls-3" d="M97.48,51.54h-2.7v1.48h2.39v1.38h-2.39v1.61h2.7v1.43h-4.49v-7.33h4.49v1.43Z"/>
    <path class="cls-3" d="M105.97,50.11c1.8,0,2.69,1.03,2.69,2.31,0,.92-.5,1.79-1.63,2.12l1.69,2.9h-2.01l-1.52-2.77h-.43v2.77h-1.79v-7.33h3ZM105.87,51.59h-1.11v1.82h1.11c.67,0,.98-.34.98-.92,0-.54-.31-.9-.98-.9Z"/>
    <path class="cls-3" d="M116.78,57.51c-1.58,0-2.81-.78-2.86-2.27h1.9c.05.56.41.84.91.84s.86-.26.86-.69c0-1.36-3.66-.63-3.64-3.23,0-1.39,1.14-2.16,2.67-2.16s2.67.79,2.75,2.19h-1.93c-.03-.47-.36-.75-.85-.76-.43-.01-.75.21-.75.67,0,1.27,3.62.7,3.62,3.15,0,1.23-.96,2.25-2.67,2.25Z"/>
  </g>
</svg>